# xmcd CD database file
#
# Track frame offsets:
#	150
#	24281
#	41364
#	69729
#	94041
#	115595
#	134648
#	151955
#	172878
#	187090
#	216116
#	232805
#	248462
#	273919
#
# Disc length: 3807 seconds
#
# Revision: 0
# Processed by: cddbd v1.5.1PL0 Copyright (c) Steve Scherf et al.
# Submitted via: CDex 1.51
#
DISCID=b00edd0e
DTITLE=Horace Silver - The United States of Mind [CD2]
DYEAR=2004
DGENRE=Jazz
TTITLE0=Big Business
TTITLE1=I'm Aware Of The Animals Within Me
TTITLE2=Old Mother Nature Calls
TTITLE3=Total Response
TTITLE4=The Merger Of The Minds
TTITLE5=Cause And Effect
TTITLE6=Forever Is A Long Long Time
TTITLE7=My Soul Is My Computer
TTITLE8=How Much Does Matter Really Matter
TTITLE9=Horn Of Life
TTITLE10=Who Has The Answer
TTITLE11=From The Heart Through The Mind
TTITLE12=All
TTITLE13=Summary
EXTD=YEAR: 2004
EXTT0=
EXTT1=
EXTT2=
EXTT3=
EXTT4=
EXTT5=
EXTT6=
EXTT7=
EXTT8=
EXTT9=
EXTT10=
EXTT11=
EXTT12=
EXTT13=
PLAYORDER=
